<?xml version="1.0" standalone="no"?>
<!DOCTYPE svg PUBLIC "-//W3C//DTD SVG 20010904//EN"
 "http://www.w3.org/TR/2001/REC-SVG-20010904/DTD/svg10.dtd">
<svg version="1.0" xmlns="http://www.w3.org/2000/svg"
 width="192.000000pt" height="192.000000pt" viewBox="0 0 192.000000 192.000000"
 preserveAspectRatio="xMidYMid meet">
<metadata>
Created by potrace 1.14, written by Peter Selinger 2001-2017
</metadata>
<g transform="translate(0.000000,192.000000) scale(0.100000,-0.100000)"
fill="#000000" stroke="none">
<path d="M766 1235 l-16 -24 57 -3 57 -3 1 -145 0 -144 47 -18 c44 -16 50 -16
93 -1 l45 17 0 148 0 147 59 3 60 3 -19 25 c-19 24 -20 24 -26 5 -5 -20 -13
-21 -165 -21 -123 -1 -159 2 -159 12 0 24 -18 24 -34 -1z"/>
<path d="M464 847 c-9 -38 0 -100 15 -105 8 -3 11 0 7 7 -4 7 6 23 23 38 35
31 40 58 12 73 -31 16 -50 12 -57 -13z m56 -28 c0 -5 -7 -9 -15 -9 -9 0 -15 9
-15 21 0 18 2 19 15 9 8 -7 15 -16 15 -21z"/>
<path d="M566 861 c-5 -8 -8 -57 -7 -99 1 -22 5 -32 14 -29 6 2 11 15 9 28 -3
23 -2 23 13 5 8 -11 15 -23 15 -28 0 -4 3 -8 8 -8 12 0 11 118 -1 128 -13 10
-46 12 -51 3z m44 -30 c0 -12 -20 -25 -27 -18 -7 7 6 27 18 27 5 0 9 -4 9 -9z"/>
<path d="M661 856 c-15 -18 -11 -97 6 -114 23 -23 49 -6 51 35 2 20 4 39 6 42
2 3 0 16 -5 29 -9 25 -40 29 -58 8z m39 -50 c0 -30 -18 -62 -21 -39 -7 41 -4
73 8 73 8 0 13 -13 13 -34z"/>
<path d="M752 858 c-16 -16 -16 -100 0 -116 13 -13 57 -16 59 -4 6 35 4 53 -6
62 -9 8 -15 8 -20 0 -9 -14 -25 -13 -25 3 0 6 5 19 10 27 8 13 11 13 19 1 14
-22 33 -4 21 20 -12 21 -40 25 -58 7z m38 -93 c0 -8 -4 -15 -10 -15 -5 0 -10
7 -10 15 0 8 5 15 10 15 6 0 10 -7 10 -15z"/>
<path d="M839 863 c0 -5 -2 -36 -3 -71 -1 -51 2 -62 14 -60 9 2 14 13 13 28
-2 24 -2 24 9 -2 7 -16 18 -28 25 -28 16 0 16 2 3 34 -6 16 -6 27 0 31 14 9
12 49 -2 63 -13 13 -57 17 -59 5z m48 -38 c0 -8 -6 -15 -14 -15 -7 0 -13 7
-13 15 0 8 6 15 13 15 8 0 14 -7 14 -15z"/>
<path d="M946 854 c-13 -33 -19 -124 -8 -124 5 0 12 7 16 15 3 8 10 15 16 15
5 0 10 -7 10 -15 0 -8 7 -15 15 -15 19 0 19 -2 -2 76 -17 62 -35 81 -47 48z"/>
<path d="M1028 860 c-6 -20 4 -130 13 -130 5 0 9 14 9 30 0 26 2 29 14 18 8
-7 12 -16 9 -20 -2 -5 0 -8 5 -8 5 0 13 10 17 23 7 20 8 19 12 -10 8 -60 23
-34 23 37 0 53 -3 70 -14 70 -7 0 -16 -13 -19 -30 -4 -16 -10 -30 -15 -30 -4
0 -13 14 -19 30 -11 30 -28 39 -35 20z"/>
<path d="M1158 863 c-2 -4 -4 -35 -3 -67 0 -41 4 -61 14 -64 10 -3 12 3 9 27
-3 20 -1 30 6 28 6 -2 11 -10 11 -17 0 -23 21 -22 33 2 11 22 12 22 9 -6 -1
-16 3 -31 9 -33 8 -3 12 15 10 59 -1 81 -18 91 -41 23 -6 -17 -9 -15 -19 14
-12 34 -30 50 -38 34z"/>
<path d="M1287 863 c-3 -5 -5 -36 -5 -71 l1 -63 34 3 c33 3 44 24 11 22 -9 -1
-19 7 -21 17 -4 15 0 19 19 19 13 0 24 5 24 10 0 6 -9 10 -20 10 -27 0 -26 28
2 32 12 2 23 9 26 16 4 13 -63 18 -71 5z"/>
<path d="M1385 860 c-11 -17 -3 -131 9 -127 6 2 10 14 10 27 -2 23 -1 23 12 5
8 -10 14 -22 14 -27 0 -4 4 -8 8 -8 7 0 9 84 4 128 -2 14 -48 16 -57 2z m45
-35 c0 -8 -7 -15 -15 -15 -16 0 -20 12 -8 23 11 12 23 8 23 -8z"/>
<path d="M1254 705 c-10 -8 -14 -15 -8 -15 6 0 17 7 24 15 16 19 9 19 -16 0z"/>
<path d="M835 660 c-15 -23 -29 -49 -31 -58 -3 -9 6 1 20 23 14 22 26 45 27
50 0 6 4 0 9 -12 6 -15 15 -21 25 -17 13 5 13 2 0 -30 -17 -40 -19 -54 -6 -40
5 5 14 27 21 49 7 22 17 46 23 53 14 18 -8 15 -23 -3 -16 -19 -34 -19 -27 0
13 33 -14 23 -38 -15z"/>
<path d="M1143 669 c-40 -28 -59 -29 -31 -1 7 7 9 12 4 12 -14 0 -43 -19 -76
-50 l-34 -31 -12 22 c-13 24 -9 49 8 49 6 0 5 -8 -3 -17 -12 -17 -12 -17 5 -1
19 17 14 38 -8 38 -13 0 -25 -19 -50 -82 -17 -43 -6 -52 13 -11 12 27 13 27
27 8 12 -16 18 -17 34 -8 15 10 19 9 22 -3 2 -13 10 -10 34 13 17 16 49 40 72
53 23 13 42 27 42 32 0 11 1 11 -47 -23z m-63 -34 c-7 -8 -17 -15 -23 -15 -5
0 -2 9 8 20 21 23 35 19 15 -5z"/>
<path d="M905 570 c3 -5 8 -10 11 -10 2 0 4 5 4 10 0 6 -5 10 -11 10 -5 0 -7
-4 -4 -10z"/>
</g>
</svg>
